<svg width="87" height="87" viewBox="0 0 87 87" fill="none" xmlns="http://www.w3.org/2000/svg">
<g clip-path="url(#clip0_408_102)">
<ellipse cx="44.4062" cy="44.4062" rx="28.0938" ry="29.9062" fill="white"/>
<path d="M43.5 0C19.4756 0 0 19.4756 0 43.5C0 67.5244 19.4756 87 43.5 87C67.5244 87 87 67.5244 87 43.5C87 19.4756 67.5244 0 43.5 0ZM53.1272 24.904C58.2961 24.8232 62.9707 27.6333 65.1866 32.424C67.2364 38.7573 65.521 45.2003 61.9059 50.0559C59.5198 53.3486 56.668 56.1882 53.7524 58.6694C51.0702 61.1662 45.0664 66.1072 43.4752 66.2444C42.0689 65.9756 40.4902 64.3828 39.3737 63.5642C33.0999 58.7951 26.3478 52.9979 22.9235 46.6567C20.0524 40.5689 20.0472 33.0366 24.5156 28.3692C30.3096 23.1458 39.0439 24.1682 43.4752 29.6253C44.6653 28.0814 46.1291 26.8655 47.8659 25.981C49.6262 25.2784 51.4042 24.9309 53.1272 24.904Z" fill="#FF55A9"/>
</g>
<defs>
<clipPath id="clip0_408_102">
<rect width="87" height="87" fill="white"/>
</clipPath>
</defs>
</svg>
