<svg width="87" height="87" viewBox="0 0 87 87" fill="none" xmlns="http://www.w3.org/2000/svg">
<g clip-path="url(#clip0_455_244)">
<path d="M43.5 0C19.4756 0 0 19.4756 0 43.5C0 67.5244 19.4756 87 43.5 87C67.5244 87 87 67.5244 87 43.5C87 19.4756 67.5244 0 43.5 0ZM53.1272 24.904C58.2961 24.8232 62.9707 27.6333 65.1866 32.424C67.2364 38.7573 65.521 45.2003 61.9059 50.0559C59.5198 53.3486 56.668 56.1882 53.7524 58.6694C51.0702 61.1662 45.0664 66.1072 43.4752 66.2444C42.0689 65.9756 40.4902 64.3828 39.3737 63.5642C33.0999 58.7951 26.3478 52.9979 22.9235 46.6567C20.0524 40.5689 20.0472 33.0366 24.5156 28.3692C30.3096 23.1458 39.0439 24.1682 43.4752 29.6253C44.6653 28.0814 46.1291 26.8655 47.8659 25.981C49.6262 25.2784 51.4042 24.9309 53.1272 24.904Z" fill="#40C32C"/>
<ellipse cx="44.4062" cy="44.4062" rx="28.0938" ry="29.9062" fill="#40C32C"/>
<path d="M40.7272 26C37.8144 26 34.9671 26.8637 32.5452 28.482C30.1233 30.1002 28.2357 32.4003 27.121 35.0913C26.0064 37.7824 25.7147 40.7435 26.283 43.6003C26.8512 46.4571 28.2539 49.0812 30.3135 51.1409C32.3731 53.2005 34.9973 54.6031 37.8541 55.1714C40.7109 55.7396 43.672 55.448 46.363 54.3333C49.0541 53.2187 51.3542 51.331 52.9724 48.9092C54.5906 46.4873 55.4544 43.6399 55.4544 40.7272C55.4541 36.8214 53.9024 33.0756 51.1406 30.3138C48.3788 27.5519 44.633 26.0002 40.7272 26Z" stroke="white" stroke-width="6" stroke-miterlimit="10"/>
<path d="M51.7148 51.7148L62.0002 62.0002" stroke="white" stroke-width="6" stroke-miterlimit="10" stroke-linecap="round"/>
</g>
<defs>
<clipPath id="clip0_455_244">
<rect width="87" height="87" fill="white"/>
</clipPath>
</defs>
</svg>
